<svg width="96" height="96" viewBox="0 0 96 96" fill="none" xmlns="http://www.w3.org/2000/svg">
<rect width="96" height="96" rx="6" fill="url(#paint0_linear_1325_2401)"/>
<path d="M47.4888 15.8804H48.5118V22.3035H47.4888V15.8804Z" fill="white"/>
<path fill-rule="evenodd" clip-rule="evenodd" d="M33.6822 44.188H48.0001V22.1493H33.6822C32.0422 22.1493 30.7183 23.4791 30.7183 25.115V41.2223C30.7183 42.8632 32.0472 44.188 33.6822 44.188ZM62.3181 22.1543H48.0002V44.193H62.3181C63.9581 44.193 65.282 42.8632 65.282 41.2273V25.12C65.282 23.4791 63.953 22.1543 62.3181 22.1543ZM52.5854 27.589C52.5854 28.1973 52.827 28.7808 53.2569 29.211C53.6869 29.6412 54.27 29.8829 54.878 29.8829C55.4861 29.8829 56.0692 29.6412 56.4991 29.211C56.9291 28.7808 57.1706 28.1973 57.1706 27.589C57.1706 26.9806 56.9291 26.3971 56.4991 25.9669C56.0692 25.5367 55.4861 25.295 54.878 25.295C54.27 25.295 53.6869 25.5367 53.2569 25.9669C52.827 26.3971 52.5854 26.9806 52.5854 27.589ZM38.5841 29.211C38.1541 28.7808 37.9126 28.1973 37.9126 27.589C37.9126 26.9806 38.1541 26.3971 38.5841 25.9669C39.014 25.5367 39.5972 25.295 40.2052 25.295C40.8132 25.295 41.3964 25.5367 41.8263 25.9669C42.2562 26.3971 42.4978 26.9806 42.4978 27.589C42.4978 28.1973 42.2562 28.7808 41.8263 29.211C41.3964 29.6412 40.8132 29.8829 40.2052 29.8829C39.5972 29.8829 39.014 29.6412 38.5841 29.211Z" fill="white"/>
<path d="M45.543 15.4588C45.543 16.111 45.8019 16.7364 46.2627 17.1975C46.7236 17.6586 47.3486 17.9177 48.0003 17.9177C48.6521 17.9177 49.2771 17.6586 49.738 17.1975C50.1988 16.7364 50.4577 16.111 50.4577 15.4588C50.4577 14.8067 50.1988 14.1813 49.738 13.7202C49.2771 13.2591 48.6521 13 48.0003 13C47.3486 13 46.7236 13.2591 46.2627 13.7202C45.8019 14.1813 45.543 14.8067 45.543 15.4588Z" fill="white"/>
<path opacity="0.7" d="M30.7282 36.8344L28 35.4695V28.9309L30.7282 27.4657V36.8344ZM65.2718 27.4155L68 28.7854V35.3189L65.2718 36.7842V27.4155Z" fill="white"/>
<mask id="path-6-outside-1_1325_2401" maskUnits="userSpaceOnUse" x="33.9956" y="33.1412" width="28" height="30" fill="black">
<rect fill="white" x="33.9956" y="33.1412" width="28" height="30"/>
<path fill-rule="evenodd" clip-rule="evenodd" d="M57.4138 57.8042L53.7124 55.0274C53.5025 54.8697 53.2504 54.7781 52.9883 54.7644C52.7262 54.7507 52.4659 54.8154 52.2408 54.9504L48.6423 57.612C48.4483 57.728 48.2265 57.7892 48.0005 57.7892C47.7746 57.7892 47.5528 57.728 47.3588 57.612L43.7603 54.9494C43.5348 54.8144 43.2741 54.7497 43.0116 54.7636C42.7492 54.7776 42.4968 54.8694 42.2867 55.0274L38.6133 57.7832C38.465 57.8952 38.2886 57.9637 38.1037 57.981C37.9188 57.9984 37.7327 57.964 37.5662 57.8817C37.3997 57.7993 37.2594 57.6722 37.1609 57.5147C37.0625 57.3571 37.0097 57.1752 37.0086 56.9894L36.9956 55.4939V36.9089C36.9956 36.4865 37.3407 36.1412 37.7619 36.1412H58.2382C58.6603 36.1412 59.0045 36.4865 59.0045 36.9089V55.4939L58.9925 57.0224C58.9906 57.2049 58.9382 57.3833 58.8411 57.5378C58.7441 57.6922 58.6062 57.8168 58.4427 57.8977C58.2792 57.9785 58.0965 58.0125 57.9149 57.9958C57.7333 57.9792 57.5599 57.9125 57.4138 57.8032V57.8042ZM41.5811 42.7937C41.5811 42.1602 42.0946 41.6467 42.728 41.6467H53.2726C53.906 41.6467 54.4196 42.1602 54.4196 42.7937C54.4196 43.4272 53.906 43.9407 53.2726 43.9407H42.728C42.0946 43.9407 41.5811 43.4272 41.5811 42.7937ZM42.728 47.1522C42.0946 47.1522 41.5811 47.6658 41.5811 48.2992C41.5811 48.9327 42.0946 49.4462 42.728 49.4462H53.2726C53.906 49.4462 54.4196 48.9327 54.4196 48.2992C54.4196 47.6658 53.906 47.1522 53.2726 47.1522H42.728Z"/>
</mask>
<path fill-rule="evenodd" clip-rule="evenodd" d="M57.4138 57.8042L53.7124 55.0274C53.5025 54.8697 53.2504 54.7781 52.9883 54.7644C52.7262 54.7507 52.4659 54.8154 52.2408 54.9504L48.6423 57.612C48.4483 57.728 48.2265 57.7892 48.0005 57.7892C47.7746 57.7892 47.5528 57.728 47.3588 57.612L43.7603 54.9494C43.5348 54.8144 43.2741 54.7497 43.0116 54.7636C42.7492 54.7776 42.4968 54.8694 42.2867 55.0274L38.6133 57.7832C38.465 57.8952 38.2886 57.9637 38.1037 57.981C37.9188 57.9984 37.7327 57.964 37.5662 57.8817C37.3997 57.7993 37.2594 57.6722 37.1609 57.5147C37.0625 57.3571 37.0097 57.1752 37.0086 56.9894L36.9956 55.4939V36.9089C36.9956 36.4865 37.3407 36.1412 37.7619 36.1412H58.2382C58.6603 36.1412 59.0045 36.4865 59.0045 36.9089V55.4939L58.9925 57.0224C58.9906 57.2049 58.9382 57.3833 58.8411 57.5378C58.7441 57.6922 58.6062 57.8168 58.4427 57.8977C58.2792 57.9785 58.0965 58.0125 57.9149 57.9958C57.7333 57.9792 57.5599 57.9125 57.4138 57.8032V57.8042ZM41.5811 42.7937C41.5811 42.1602 42.0946 41.6467 42.728 41.6467H53.2726C53.906 41.6467 54.4196 42.1602 54.4196 42.7937C54.4196 43.4272 53.906 43.9407 53.2726 43.9407H42.728C42.0946 43.9407 41.5811 43.4272 41.5811 42.7937ZM42.728 47.1522C42.0946 47.1522 41.5811 47.6658 41.5811 48.2992C41.5811 48.9327 42.0946 49.4462 42.728 49.4462H53.2726C53.906 49.4462 54.4196 48.9327 54.4196 48.2992C54.4196 47.6658 53.906 47.1522 53.2726 47.1522H42.728Z" fill="white"/>
<path d="M53.7124 55.0274L52.2103 57.0259L52.2121 57.0273L53.7124 55.0274ZM57.4138 57.8042L55.9136 59.8041L59.9138 62.805V57.8042H57.4138ZM52.9883 54.7644L52.8575 57.261H52.8575L52.9883 54.7644ZM52.2408 54.9504L50.9556 52.806L50.8516 52.8683L50.7541 52.9404L52.2408 54.9504ZM48.6423 57.612L49.9248 59.758L50.0303 59.695L50.129 59.622L48.6423 57.612ZM47.3588 57.612L45.8717 59.6217L45.9706 59.6949L46.0762 59.758L47.3588 57.612ZM43.7603 54.9494L45.2474 52.9397L45.149 52.8669L45.044 52.8041L43.7603 54.9494ZM42.2867 55.0274L43.787 57.0273L43.7898 57.0251L42.2867 55.0274ZM38.6133 57.7832L37.113 55.7834L37.1066 55.7882L38.6133 57.7832ZM38.1037 57.981L37.8697 55.492L37.8697 55.492L38.1037 57.981ZM37.5662 57.8817L38.6747 55.6409L38.6747 55.6408L37.5662 57.8817ZM37.1609 57.5147L39.281 56.1898L39.281 56.1898L37.1609 57.5147ZM37.0086 56.9894L39.5086 56.9745L39.5085 56.9677L37.0086 56.9894ZM36.9956 55.4939H34.4956V55.5048L34.4957 55.5157L36.9956 55.4939ZM59.0045 55.4939L61.5044 55.5135L61.5045 55.5037V55.4939H59.0045ZM58.9925 57.0224L61.4924 57.0489L61.4924 57.0421L58.9925 57.0224ZM58.8411 57.5378L56.7242 56.2079L56.7241 56.2079L58.8411 57.5378ZM57.9149 57.9958L58.1435 55.5063L58.1435 55.5063L57.9149 57.9958ZM57.4138 57.8032L58.9115 55.8015L54.9138 52.8104V57.8032H57.4138ZM52.2121 57.0273L55.9136 59.8041L58.9141 55.8044L55.2126 53.0276L52.2121 57.0273ZM52.8575 57.261C52.6231 57.2487 52.3978 57.1668 52.2103 57.0259L55.2144 53.029C54.6072 52.5726 53.8777 52.3076 53.119 52.2678L52.8575 57.261ZM53.5259 57.0948C53.3247 57.2154 53.092 57.2733 52.8575 57.261L53.1191 52.2678C52.3604 52.2281 51.6072 52.4155 50.9556 52.806L53.5259 57.0948ZM50.129 59.622L53.7274 56.9603L50.7541 52.9404L47.1556 55.6021L50.129 59.622ZM48.0005 60.2892C48.6783 60.2892 49.3432 60.1056 49.9248 59.758L47.3598 55.4661C47.5534 55.3504 47.7748 55.2892 48.0005 55.2892V60.2892ZM46.0762 59.758C46.6579 60.1056 47.3228 60.2892 48.0005 60.2892V55.2892C48.2263 55.2892 48.4477 55.3504 48.6413 55.4661L46.0762 59.758ZM42.2733 56.959L45.8717 59.6217L48.8458 55.6024L45.2474 52.9397L42.2733 56.959ZM43.1439 57.2601C42.9099 57.2725 42.6776 57.2149 42.4767 57.0947L45.044 52.8041C44.3919 52.4139 43.6383 52.2269 42.8794 52.2671L43.1439 57.2601ZM43.7898 57.0251C43.6028 57.1659 43.3779 57.2477 43.1439 57.2601L42.8794 52.2671C42.1204 52.3074 41.3908 52.5729 40.7837 53.0298L43.7898 57.0251ZM40.1135 59.783L43.787 57.0273L40.7865 53.0276L37.113 55.7834L40.1135 59.783ZM38.3377 60.4701C38.9845 60.4093 39.6016 60.1697 40.1199 59.7782L37.1066 55.7882C37.3285 55.6207 37.5927 55.5181 37.8697 55.492L38.3377 60.4701ZM36.4577 60.1225C37.0399 60.4105 37.6909 60.5309 38.3377 60.4701L37.8697 55.492C38.1467 55.466 38.4254 55.5175 38.6747 55.6409L36.4577 60.1225ZM35.0408 58.8395C35.385 59.3902 35.8755 59.8345 36.4577 60.1225L38.6747 55.6408C38.9239 55.7641 39.1338 55.9543 39.281 56.1898L35.0408 58.8395ZM34.5087 57.0043C34.5125 57.6535 34.6967 58.2889 35.0409 58.8396L39.281 56.1898C39.4282 56.4253 39.5069 56.697 39.5086 56.9745L34.5087 57.0043ZM34.4957 55.5157L34.5087 57.0112L39.5085 56.9677L39.4955 55.4722L34.4957 55.5157ZM34.4956 36.9089V55.4939H39.4956V36.9089H34.4956ZM37.7619 33.6412C35.9565 33.6412 34.4956 35.1093 34.4956 36.9089H39.4956C39.4956 37.8637 38.725 38.6412 37.7619 38.6412V33.6412ZM58.2382 33.6412H37.7619V38.6412H58.2382V33.6412ZM61.5045 36.9089C61.5045 35.1115 60.0467 33.6412 58.2382 33.6412V38.6412C57.274 38.6412 56.5045 37.8616 56.5045 36.9089H61.5045ZM61.5045 55.4939V36.9089H56.5045V55.4939H61.5045ZM61.4924 57.0421L61.5044 55.5135L56.5046 55.4743L56.4926 57.0028L61.4924 57.0421ZM60.9581 58.8676C61.3007 58.3222 61.4855 57.6927 61.4923 57.0489L56.4926 56.996C56.4956 56.7171 56.5757 56.4443 56.7242 56.2079L60.9581 58.8676ZM59.551 60.1386C60.1285 59.8529 60.6155 59.413 60.9581 58.8676L56.7241 56.2079C56.8726 55.9715 57.0838 55.7807 57.3343 55.6568L59.551 60.1386ZM57.6864 60.4854C58.3281 60.5443 58.9735 60.4242 59.551 60.1386L57.3343 55.6568C57.5849 55.5329 57.865 55.4807 58.1435 55.5063L57.6864 60.4854ZM55.9162 59.805C56.432 60.1909 57.0447 60.4265 57.6864 60.4854L58.1435 55.5063C58.422 55.5319 58.6878 55.6341 58.9115 55.8015L55.9162 59.805ZM59.9138 57.8042V57.8032H54.9138V57.8042H59.9138ZM42.728 39.1467C40.7139 39.1467 39.0811 40.7795 39.0811 42.7937H44.0811C44.0811 43.541 43.4753 44.1467 42.728 44.1467V39.1467ZM53.2726 39.1467H42.728V44.1467H53.2726V39.1467ZM56.9196 42.7937C56.9196 40.7795 55.2867 39.1467 53.2726 39.1467V44.1467C52.5253 44.1467 51.9196 43.541 51.9196 42.7937H56.9196ZM53.2726 46.4407C55.2868 46.4407 56.9196 44.8079 56.9196 42.7937H51.9196C51.9196 42.0464 52.5253 41.4407 53.2726 41.4407V46.4407ZM42.728 46.4407H53.2726V41.4407H42.728V46.4407ZM39.0811 42.7937C39.0811 44.8079 40.7139 46.4407 42.728 46.4407V41.4407C43.4753 41.4407 44.0811 42.0464 44.0811 42.7937H39.0811ZM44.0811 48.2992C44.0811 49.0465 43.4753 49.6522 42.728 49.6522V44.6522C40.7139 44.6522 39.0811 46.2851 39.0811 48.2992H44.0811ZM42.728 46.9462C43.4753 46.9462 44.0811 47.552 44.0811 48.2992H39.0811C39.0811 50.3134 40.7139 51.9462 42.728 51.9462V46.9462ZM53.2726 46.9462H42.728V51.9462H53.2726V46.9462ZM51.9196 48.2992C51.9196 47.552 52.5253 46.9462 53.2726 46.9462V51.9462C55.2868 51.9462 56.9196 50.3134 56.9196 48.2992H51.9196ZM53.2726 49.6522C52.5253 49.6522 51.9196 49.0465 51.9196 48.2992H56.9196C56.9196 46.285 55.2867 44.6522 53.2726 44.6522V49.6522ZM42.728 49.6522H53.2726V44.6522H42.728V49.6522Z" fill="url(#paint1_linear_1325_2401)" mask="url(#path-6-outside-1_1325_2401)"/>
<rect x="11" y="66" width="36" height="18" rx="2" fill="white"/>
<path d="M16.358 73.07H19.76C18.808 75.94 17.394 78.208 15.504 79.888L16.274 81.246C17.772 80.028 19.018 78.404 20.012 76.388C20.46 77.158 21.104 77.886 21.958 78.586C21.006 79.16 19.844 79.692 18.486 80.182L19.256 81.554C20.824 80.938 22.154 80.252 23.246 79.496C24.38 80.21 25.78 80.868 27.446 81.484L28.202 80.098C26.76 79.622 25.514 79.104 24.464 78.53C25.458 77.606 26.13 76.598 26.466 75.506V74.274H20.922C21.048 73.882 21.174 73.49 21.314 73.07H28.048V71.684H21.678C21.916 70.732 22.112 69.724 22.28 68.646L20.782 68.464C20.628 69.584 20.418 70.662 20.166 71.684H18.234L18.934 69.15L17.478 68.912L16.358 73.07ZM21.076 75.59H24.982C24.604 76.346 24.002 77.074 23.176 77.746C22.238 77.074 21.538 76.36 21.076 75.59ZM24.632 68.45L23.638 69.402C24.674 70.186 25.458 70.942 26.004 71.656L27.04 70.606C26.396 69.878 25.584 69.164 24.632 68.45ZM29.728 68.912V70.172H33.802V70.984H30.694V74.344H41.306V70.984H38.198V70.172H42.272V68.912H29.728ZM36.812 70.984H35.188V70.172H36.812V70.984ZM39.906 73.168H38.198V72.16H39.906V73.168ZM36.812 73.168H35.188V72.16H36.812V73.168ZM33.802 73.168H32.094V72.16H33.802V73.168ZM31.352 75.072V76.276H40.746V75.072H31.352ZM29.952 76.934V78.18H35.454V79.65C35.454 80 35.272 80.182 34.936 80.182C34.586 80.182 34.208 80.154 33.816 80.112L34.11 81.4H35.398C36.364 81.4 36.854 80.924 36.854 79.972V78.18H42.048V76.934H29.952ZM39.038 78.376L38.086 79.3C39.43 80.014 40.452 80.686 41.18 81.302L42.202 80.28C41.334 79.65 40.284 79.02 39.038 78.376ZM33.242 78.404C32.346 79.076 31.226 79.65 29.896 80.154L30.778 81.302C32.122 80.714 33.256 80.042 34.18 79.258L33.242 78.404Z" fill="#09A1C7"/>
<path d="M50.696 71.548V72.376H52.448C52.052 73.876 51.392 75.208 50.468 76.372L50.84 77.308C51.512 76.324 52.064 75.244 52.484 74.044V80.14H53.348V73.816C53.684 74.284 54.08 74.896 54.536 75.652L55.04 74.908C54.464 74.2 53.9 73.564 53.348 72.988V72.376H54.836V71.548H53.348V69.208H52.484V71.548H50.696ZM54.272 79.612L54.98 80.248C55.544 79.384 55.928 78.496 56.132 77.56C56.348 76.672 56.456 75.568 56.456 74.248V70.516H58.592V78.868C58.592 79.564 58.976 79.912 59.744 79.912H60.236C60.62 79.912 60.908 79.84 61.1 79.708C61.292 79.54 61.412 79.252 61.46 78.82C61.508 78.364 61.544 77.716 61.544 76.852L60.752 76.6C60.752 77.752 60.716 78.436 60.668 78.676C60.644 78.844 60.584 78.952 60.488 79.024C60.404 79.072 60.296 79.096 60.152 79.096H59.744C59.552 79.096 59.468 78.988 59.468 78.784V69.7H55.592V74.248C55.592 75.484 55.508 76.468 55.352 77.2C55.148 78.052 54.788 78.856 54.272 79.612ZM63.68 69.652V72.568H67.34V69.652H63.68ZM66.548 71.836H64.46V70.396H66.548V71.836ZM68.672 69.652V72.568H72.404V69.652H68.672ZM71.624 71.836H69.464V70.396H71.624V71.836ZM62.708 73.768V74.536H66.02C65.18 75.256 64.004 75.844 62.468 76.3L62.864 77.008C63.2 76.9 63.524 76.792 63.848 76.672V80.212H64.604V79.696H66.656V80.212H67.424V76.432H64.412C65.54 75.928 66.44 75.304 67.112 74.536H69.14C69.74 75.268 70.628 75.904 71.78 76.432H68.576V80.212H69.344V79.696H71.588V80.212H72.356V76.684C72.62 76.78 72.896 76.888 73.196 76.984L73.544 76.252C71.996 75.832 70.832 75.256 70.052 74.536H73.292V73.768H71.636C71.444 73.396 71.228 73.048 70.976 72.712L70.244 72.952C70.436 73.192 70.616 73.468 70.784 73.768H67.688C67.856 73.48 68.012 73.192 68.132 72.88L67.304 72.796C67.16 73.132 66.98 73.456 66.752 73.768H62.708ZM64.604 78.952V77.152H66.656V78.952H64.604ZM69.344 78.952V77.152H71.588V78.952H69.344ZM80.432 69.22H79.556C79.556 69.676 79.544 70.312 79.532 71.128C79.424 74.584 77.72 77.332 74.42 79.36L74.948 80.128C77.612 78.412 79.316 76.252 80.036 73.636C80.888 76.348 82.544 78.508 84.992 80.116L85.556 79.36C82.76 77.644 81.02 75.148 80.348 71.884C80.396 71.14 80.432 70.252 80.432 69.22Z" fill="white"/>
<defs>
<linearGradient id="paint0_linear_1325_2401" x1="0" y1="0" x2="96" y2="99.5" gradientUnits="userSpaceOnUse">
<stop stop-color="#1DC9DD"/>
<stop offset="1" stop-color="#0090BD"/>
</linearGradient>
<linearGradient id="paint1_linear_1325_2401" x1="37" y1="36" x2="59" y2="58" gradientUnits="userSpaceOnUse">
<stop stop-color="#13B6D3"/>
<stop offset="1" stop-color="#0BA6CA"/>
</linearGradient>
</defs>
</svg>
